<svg width="24" height="24" viewBox="0 0 24 24" fill="none" xmlns="http://www.w3.org/2000/svg">
<g clip-path="url(#clip0_31_82)">
<path fill-rule="evenodd" clip-rule="evenodd" d="M22.017 3.87391L21.4277 5.45541C20.9661 6.52876 20.7218 7.09439 20.6948 7.15228C20.0166 8.60718 19.0835 10.3081 17.9675 11.4819C16.9021 12.6025 15.2942 13.6349 14.0064 14.3682C14.3373 15.9626 13.8841 17.6872 12.6467 18.9246C10.3763 21.195 7.84044 21.1954 5.95355 20.6345C4.52346 20.2093 3.34772 19.4373 2.22437 18.4868C2.02627 18.3191 2.03881 18.0117 2.25118 17.8625L2.75142 17.5011C3.4233 16.9935 4.07585 16.3747 4.24147 15.5465C4.35589 14.6209 4.42143 14.1164 4.43811 14.033C4.57591 13.344 4.86751 12.5616 5.5756 11.8535C6.81296 10.6162 8.53748 10.1629 10.1318 10.4938C10.8651 9.20599 11.8976 7.59803 13.0182 6.53254C14.192 5.41656 15.8929 4.48346 17.3478 3.8053L19.0446 3.07239L20.6261 2.48301C21.4896 2.18807 22.312 3.01044 22.017 3.87391ZM11.9795 11.2926C12.2138 11.4571 12.4372 11.6441 12.6467 11.8535C12.8561 12.0629 13.043 12.2863 13.2075 12.5206C13.5988 12.2938 14.0025 12.0477 14.3972 11.7889L14.3667 11.7216C14.2508 11.4743 14.0479 11.1335 13.7073 10.7928C13.4153 10.5009 13.1232 10.3101 12.89 10.1885L12.7111 10.1029C12.4524 10.4976 12.2063 10.9013 11.9795 11.2926ZM19.4218 5.07827C19.0386 5.23698 18.6224 5.41779 18.1927 5.61805C16.7839 6.27471 15.3265 7.09752 14.3963 7.98198C14.2392 8.13131 14.082 8.29678 13.9256 8.47475C14.2884 8.67547 14.7081 8.96527 15.1215 9.37864C15.5348 9.79197 15.8246 10.2117 16.0253 10.5744C16.2033 10.4181 16.3688 10.2608 16.5181 10.1038C17.4025 9.17352 18.2253 7.71612 18.882 6.30732C19.0823 5.87769 19.2631 5.46144 19.4218 5.07827Z" fill="#09244B"/>
</g>
<defs>
<clipPath id="clip0_31_82">
<rect width="24" height="24" fill="white"/>
</clipPath>
</defs>
</svg>
